<mxfile host="app.diagrams.net" modified="2024-04-05T08:32:46.216Z" agent="Mozilla/5.0 (Windows NT 10.0; Win64; x64) AppleWebKit/537.36 (KHTML, like Gecko) Chrome/123.0.0.0 Safari/537.36 Edg/123.0.0.0" version="24.2.2" etag="HDN29s9YNZgy4orPper-" type="github">
  <diagram name="Page-1" id="zQSDlUv1-u842r6I1mx_">
    <mxGraphModel>
      <root>
        <mxCell id="0" />
        <mxCell id="1" parent="0" />
      </root>
    </mxGraphModel>
  </diagram>
</mxfile>
